<?xml version="1.0" encoding="UTF-8"?>
<svg width="40px" height="32px" viewBox="0 0 40 32" version="1.1" xmlns="http://www.w3.org/2000/svg" xmlns:xlink="http://www.w3.org/1999/xlink">
    <!-- Generator: Sketch 57.1 (83088) - https://sketch.com -->
    <title>Nav</title>
    <desc>Created with Sketch.</desc>
    <g id="Welcome" stroke="none" stroke-width="1" fill="none" fill-rule="evenodd">
        <g id="Mobile-Portrait" transform="translate(-22.000000, -40.000000)" fill="#000" fill-rule="nonzero">
            <g id="UI" transform="translate(-38.000000, -30.000000)">
                <g id="Nav" transform="translate(60.000000, 70.000000)">
                    <g id="open-menu">
                        <path d="M42.28125,14.6285714 L1.71875,14.6285714 C0.769484375,14.6285714 0,15.4472229 0,16.4571429 C0,17.4670629 0.769484375,18.2857143 1.71875,18.2857143 L42.28125,18.2857143 C43.2305156,18.2857143 44,17.4670629 44,16.4571429 C44,15.4472229 43.2305156,14.6285714 42.28125,14.6285714 Z" id="Path"></path>
                        <path d="M42.28125,0 L1.71875,0 C0.769484375,0 0,0.818651429 0,1.82857143 C0,2.83849143 0.769484375,3.65714286 1.71875,3.65714286 L42.28125,3.65714286 C43.2305156,3.65714286 44,2.83849143 44,1.82857143 C44,0.818651429 43.2305156,0 42.28125,0 Z" id="Path"></path>
                        <path d="M42.28125,28.3428571 L1.71875,28.3428571 C0.769484375,28.3428571 0,29.1615086 0,30.1714286 C0,31.1813486 0.769484375,32 1.71875,32 L42.28125,32 C43.2305156,32 44,31.1813486 44,30.1714286 C44,29.1615086 43.2305156,28.3428571 42.28125,28.3428571 Z" id="Path"></path>
                    </g>
                </g>
            </g>
        </g>
    </g>
</svg>