<?xml version="1.0" encoding="UTF-8"?>
<svg width="33px" height="45px" viewBox="0 0 33 45" version="1.1" xmlns="http://www.w3.org/2000/svg" xmlns:xlink="http://www.w3.org/1999/xlink">
    <!-- Generator: Sketch 57.1 (83088) - https://sketch.com -->
    <title>fried-potatoes</title>
    <desc>Created with Sketch.</desc>
    <g id="Welcome" stroke="none" stroke-width="1" fill="none" fill-rule="evenodd">
        <g id="Mobile-Portrait" transform="translate(-122.000000, -1227.000000)" fill="#000000" fill-rule="nonzero">
            <g id="UI" transform="translate(-38.000000, -30.000000)">
                <g id="Menu" transform="translate(60.000000, 1146.000000)">
                    <g id="Tabs" transform="translate(0.000000, 98.000000)">
                        <g id="iconos" transform="translate(12.000000, 12.000000)">
                            <g id="fried-potatoes" transform="translate(88.000000, 1.000000)">
                                <path d="M16.9342105,24.7959184 C12.8641105,24.7959184 9.55263158,28.0918572 9.55263158,32.1428571 C9.55263158,36.1938571 12.8641105,39.4897959 16.9342105,39.4897959 C21.0046472,39.4897959 24.3157895,36.1938571 24.3157895,32.1428571 C24.3157895,28.0918572 21.0046472,24.7959184 16.9342105,24.7959184 Z M16.9342105,38.2034452 C13.576622,38.2034452 10.8450474,35.4846892 10.8450474,32.1428571 C10.8450474,28.8010251 13.576622,26.0822691 16.9342105,26.0822691 C20.2921357,26.0822691 23.0237102,28.8010251 23.0237102,32.1428571 C23.0237102,35.4846892 20.2921357,38.2034452 16.9342105,38.2034452 Z" id="Shape"></path>
                                <path d="M31.5708769,14.7450152 L31.5216734,14.7450152 L32.9590711,7.46382376 C33.0650225,6.92755339 32.9600551,6.3758336 32.6710667,5.95045654 C32.4004476,5.55151532 31.9976351,5.29676979 31.5374185,5.23291169 L29.112015,4.89679867 C28.9296341,4.87139273 28.7479092,4.87894588 28.5720888,4.91362146 L28.5934103,4.72445054 C28.6550787,4.17547725 28.504188,3.62787733 28.179117,3.22275634 C27.8747115,2.8430412 27.4495934,2.61850809 26.9818323,2.59069887 L25.1859053,2.48323883 C25.2449495,1.94937183 25.1078358,1.41241477 24.8047424,1.0018007 C24.5131297,0.606979358 24.0975244,0.359443589 23.6346836,0.305198531 L21.1321947,0.0113141528 C20.6696819,-0.0432742058 20.2101215,0.100921488 19.8381432,0.416778531 C19.4372988,0.757011431 19.1781604,1.27062245 19.1266608,1.8257756 L18.8990128,4.29564029 C18.8386565,4.20191317 18.7707557,4.11367922 18.6949823,4.03265493 C18.3623668,3.67662913 17.9228157,3.48059175 17.4570228,3.48059175 L14.9729031,3.48059175 C14.6425838,3.48059175 14.3266974,3.58084212 14.051814,3.76520648 L13.8730413,1.8257756 C13.8218697,1.27062245 13.5624033,0.757011431 13.161559,0.416778531 C12.7899087,0.100921488 12.3306763,-0.0429308171 11.8675075,0.0113141528 L9.36501856,0.305198531 C8.90217781,0.359443589 8.48657239,0.606979358 8.19495979,1.0018007 C7.89186636,1.41241477 7.75475262,1.94937183 7.81379679,2.48323883 L6.01786977,2.59069887 C5.55043673,2.61850809 5.12499067,2.8430412 4.82058514,3.22275634 C4.49551413,3.62787733 4.34462346,4.17547725 4.40629182,4.72445054 L4.42761331,4.91396477 C4.25179287,4.87928918 4.07039607,4.87139273 3.88768717,4.89679867 L1.4622836,5.23291169 C1.00206712,5.29676979 0.599582638,5.55151532 0.328635435,5.95045654 C0.0396470189,6.3758336 -0.0653204042,6.92755339 0.0406311095,7.46382376 L1.47802872,14.7450152 L1.42882528,14.7450152 C1.0066594,14.7450152 0.608439285,14.9386493 0.336179989,15.2768223 C0.0639207775,15.6149953 -0.0508873836,16.0589119 0.0209497176,16.4942453 L4.51158725,43.7588878 C4.63033169,44.4781492 5.22241354,45 5.9197909,45 L27.0802393,45 C27.7776166,45 28.3696985,44.4781492 28.4881149,43.7588878 L32.9790805,16.4942453 C33.0509176,16.0589119 32.9357814,15.6149953 32.6638501,15.2768223 C32.3915909,14.9386493 31.9933708,14.7450152 31.5708769,14.7450152 L31.5708769,14.7450152 Z M28.3883958,6.55092822 C28.5081243,6.31746867 28.7331482,6.17327306 28.9470193,6.20382886 L31.3724228,6.53959859 C31.5128168,6.55916797 31.5977748,6.64499873 31.6443541,6.7140066 C31.7312802,6.84206601 31.7611303,7.01819063 31.7257039,7.19706191 L30.2358225,14.7446719 L29.3150613,14.7446719 L29.9281367,9.67653965 C29.9901331,9.16601851 29.8503952,8.65412418 29.5450057,8.27234914 C29.2478166,7.90018715 28.8272908,7.6814905 28.361498,7.65642787 L28.2644031,7.65127809 L28.3883958,6.55092822 Z M27.529303,8.93187236 L28.2972053,8.9730711 C28.4405515,8.98096755 28.5297738,9.05649858 28.5793054,9.1182967 C28.6616391,9.22129356 28.6967376,9.3606826 28.6786963,9.51071476 L28.0452835,14.7450152 L25.1029155,14.7450152 L25.4434036,12.663792 C25.5139285,12.2329218 25.4312667,11.8010216 25.2141154,11.4329795 L25.3640219,9.40085145 C25.378455,9.20344077 25.4824383,9.02971935 25.6264405,8.93084237 C25.7127106,8.87179083 25.8134138,8.83951853 25.9177251,8.8456983 L27.528319,8.93187236 L27.529303,8.93187236 Z M24.4022579,3.7583253 C24.4104585,3.75868332 24.418659,3.75799663 24.4271877,3.75868332 L24.4275157,3.75868332 L26.9103233,3.9066555 C27.0605579,3.91592524 27.1589649,4.00072593 27.2147289,4.07007719 C27.3174001,4.1984799 27.3639794,4.38078437 27.3426579,4.57029859 L27.1494522,6.29171952 C27.1494522,6.29171952 27.1491242,6.29206282 27.1491242,6.29240612 L27.0041379,7.58364342 L25.9820176,7.52905506 C25.0235339,7.47755667 24.1837945,8.27166245 24.1080211,9.29922788 L24.0115823,10.6048847 L23.4224526,10.5077244 L23.8265772,4.40996679 C23.8501949,4.04810453 24.1126134,3.75593674 24.4022579,3.7583253 L24.4022579,3.7583253 Z M24.2018357,12.4413188 L23.8141124,14.8119632 C23.4034273,14.9451725 23.0668755,15.2685826 22.9051601,15.7094092 C22.4131253,17.0504283 21.5563287,18.19644 20.4272728,19.0238482 C20.3062322,19.1124255 20.1828955,19.1955096 20.0575907,19.2751605 L21.0701982,11.9246178 C21.0869274,11.8020516 21.1485958,11.6942482 21.2437226,11.6211204 C21.3388493,11.547306 21.4552975,11.5177802 21.5720738,11.5370063 L22.6463498,11.7141609 C22.6466778,11.7141609 22.6473338,11.7141609 22.6479899,11.7145042 L23.838058,11.9108849 C23.9548343,11.930111 24.0571775,11.996029 24.1260624,12.0966225 C24.1949473,12.1972162 24.2218451,12.3194392 24.2018357,12.4413188 L24.2018357,12.4413188 Z M18.9747861,17.203207 L20.3803655,1.95246172 C20.3997189,1.74646799 20.4909093,1.56004365 20.6316313,1.44056729 C20.7077326,1.37602259 20.8327095,1.30255145 20.9918008,1.32143423 L23.4946177,1.61497531 C23.6497727,1.6331714 23.7508039,1.72998849 23.8078799,1.80757942 C23.9151435,1.95280502 23.9607387,2.15227558 23.9325287,2.35483612 L23.9105511,2.51345124 C23.9000544,2.51688452 23.8898857,2.52100439 23.879389,2.52443758 C23.8662681,2.52890084 23.8531471,2.53370732 23.8403542,2.53851379 C23.8009914,2.5525901 23.7619566,2.5680396 23.723906,2.5852057 C23.7140653,2.58932566 23.7042246,2.59378884 23.6943838,2.59859532 C23.6199226,2.63327099 23.5480855,2.67309636 23.4788726,2.71807168 C23.4726402,2.72184825 23.4667358,2.72596812 23.4605033,2.730088 C23.4175323,2.75892712 23.3752173,2.78948283 23.3345424,2.82209853 C23.3309342,2.82484511 23.3273259,2.82724839 23.3237177,2.83033828 C23.3017401,2.84784777 23.2804186,2.86604386 23.2594251,2.88458325 C23.2548328,2.88870321 23.2502405,2.892823 23.2456481,2.89694296 C23.2095656,2.92955856 23.1747951,2.96320425 23.1410088,2.99856653 C23.1324801,3.00749288 23.1242795,3.01607593 23.115751,3.02534567 C23.0986937,3.04388506 23.0813085,3.06276784 23.0649074,3.08233722 C23.0468661,3.10362328 23.0291529,3.12525265 23.0120956,3.14722531 C22.9960225,3.16782468 22.9806053,3.18842405 22.9651883,3.20936673 C22.9537075,3.22550292 22.9425547,3.24198242 22.9310739,3.25846192 C22.9166409,3.27974789 22.9022079,3.30172056 22.8881028,3.32403652 C22.8723577,3.34944246 22.8569406,3.3751917 22.8421796,3.40128423 C22.8329949,3.41742034 22.8241383,3.43355654 22.8156097,3.45003604 C22.7998646,3.47956185 22.7847755,3.50943096 22.7703425,3.53998668 C22.763782,3.55440619 22.7568936,3.5691691 22.7506611,3.583932 C22.7368842,3.61483102 22.7237632,3.64641672 22.7112983,3.67834573 C22.706378,3.69139204 22.7014577,3.70409496 22.6965373,3.71714128 C22.6821043,3.75696673 22.6686553,3.79747879 22.6561904,3.83833423 C22.6532382,3.84829057 22.6506141,3.8585903 22.6479899,3.86888994 C22.6371651,3.90631211 22.6276525,3.94442097 22.6187958,3.98321644 C22.6171557,3.99145619 22.6148595,3.99969593 22.6132194,4.00827907 C22.6037067,4.052911 22.5958342,4.09822962 22.5889457,4.14389163 C22.5876336,4.15419127 22.5859935,4.1648343 22.5846814,4.17513394 C22.5784489,4.22251254 22.5732006,4.27057775 22.5699204,4.31898625 L22.1736684,10.3017307 L21.7679036,10.235126 C21.3158877,10.1599382 20.8638717,10.2759814 20.4958297,10.5602528 C20.1274596,10.8448674 19.8886587,11.2626913 19.8233821,11.7368202 L18.9570729,18.0275252 L18.9747861,17.203207 Z M14.6370074,4.95379022 C14.702612,4.88306575 14.8141398,4.79895158 14.9729031,4.79895158 L17.4570228,4.79895158 C17.615786,4.79895158 17.7279699,4.88340905 17.7942306,4.95447691 C17.9103508,5.07875974 17.9746434,5.25797433 17.9707071,5.44611526 L17.7227215,16.8478678 L17.4770322,11.9225579 C17.4514463,11.4089469 17.2461039,10.9327581 16.8990554,10.5815387 C16.5392138,10.2176165 16.074405,10.0318788 15.5882746,10.0590014 L14.5769791,10.114963 L14.5556576,9.24978938 L14.462827,5.44439858 C14.4582347,5.25625773 14.5218712,5.07738645 14.6370074,4.95379022 Z M15.6548633,11.3753012 C15.8326519,11.3667182 15.9625491,11.467655 16.0235614,11.5294533 C16.1409937,11.6478996 16.2105346,11.8120079 16.2193913,11.9912225 L16.6343406,20.3140555 C16.5897295,20.3147422 16.5447903,20.3164588 16.4998511,20.3164588 C15.4370559,20.3164588 14.4060791,20.0641165 13.4695728,19.5800313 L12.7541541,12.150181 C12.7367689,11.9709664 12.7846604,11.7975884 12.8853634,11.6746788 C12.9427675,11.6049842 13.0428146,11.5198401 13.1950173,11.5112571 L15.6548633,11.3753012 Z M9.19182231,1.80757942 C9.24922631,1.72964519 9.35025745,1.6331714 9.5054124,1.61497531 L12.0079014,1.32143423 C12.1676488,1.30255145 12.2919695,1.37602259 12.3683989,1.44056729 C12.5087929,1.56004365 12.6003113,1.74646799 12.6193367,1.95246172 L13.2970326,9.30643763 L13.3186821,10.1846575 L13.1284287,10.1949572 C12.6623077,10.2210498 12.2365336,10.4418064 11.9291759,10.8167149 C11.605417,11.2122228 11.4492779,11.7460899 11.5007775,12.2823603 L11.84717,15.8790107 L11.0658188,13.9193237 L10.4297818,4.31898625 C10.4265015,4.27057775 10.4212532,4.22285585 10.4150208,4.17547725 C10.4137087,4.1648343 10.4120686,4.15453457 10.4107564,4.14389163 C10.403868,4.09822962 10.3959954,4.052911 10.3864828,4.00793568 C10.3848427,4.00038262 10.3828745,3.99248618 10.3812344,3.98493312 C10.3723777,3.94510766 10.3625371,3.90631211 10.3517123,3.86751665 C10.3490881,3.8585903 10.346464,3.84897726 10.3438398,3.84005082 C10.3313749,3.79782217 10.3175979,3.75662343 10.3025088,3.71576799 C10.2985725,3.70478165 10.2943083,3.69379532 10.2900439,3.68280899 C10.276267,3.64676011 10.2615059,3.61139783 10.2460888,3.57672216 C10.2431366,3.56985579 10.2405125,3.56298924 10.2372322,3.55680947 C10.219847,3.51835731 10.2008216,3.48127844 10.1811403,3.44488617 C10.1749078,3.43286994 10.1683473,3.42085362 10.1617869,3.40883729 C10.1417775,3.37347502 10.121112,3.33845613 10.0994624,3.30481044 C10.0935581,3.29554079 10.0873256,3.28661435 10.0810931,3.27734461 C10.0630519,3.24987878 10.0443545,3.22309964 10.0250011,3.1970071 C10.0171286,3.18602077 10.008928,3.17503444 10.0010555,3.16439141 C9.9771098,3.13314909 9.95250804,3.10293668 9.92692227,3.07341087 C9.91839363,3.06345453 9.90953698,3.05384149 9.90068042,3.04388506 C9.87837484,3.01916581 9.85606926,2.99547656 9.83277959,2.9724739 C9.82589113,2.96526414 9.81900266,2.95805439 9.81178611,2.95084463 C9.78324807,2.92303541 9.75405403,2.89659957 9.72387589,2.87050703 C9.71469124,2.86261058 9.70550659,2.85505752 9.69599394,2.84716108 C9.66483172,2.82106854 9.63268549,2.79600599 9.60021117,2.77197334 C9.59594689,2.76922676 9.59168252,2.76648018 9.58774625,2.7637336 C9.55592802,2.74107433 9.5234537,2.71944497 9.49032338,2.69918898 C9.48343491,2.69472572 9.47654636,2.69060585 9.46965789,2.68648597 C9.43324738,2.66417001 9.3958527,2.64357063 9.35780201,2.62434455 C9.35353772,2.62194127 9.34894536,2.61988138 9.34468108,2.6178214 C9.30499029,2.59825202 9.26497142,2.57971254 9.22396854,2.56323304 C9.22396854,2.56288974 9.22364054,2.56288974 9.22331254,2.56288974 C9.18099748,2.54572364 9.13769842,2.53027404 9.09374335,2.51654113 C9.09210326,2.51619783 9.09079108,2.51551123 9.08947907,2.51482454 L9.06717341,2.35483612 C9.03929146,2.15227558 9.0845587,1.95280502 9.19182231,1.80757942 Z M5.78530134,4.07007719 C5.84106533,4.00072593 5.9391442,3.91558185 6.08970687,3.9069988 L8.57382652,3.75834002 L8.5754667,3.75834002 C8.57841889,3.75834002 8.58169908,3.75868332 8.58465135,3.75834002 C8.87987223,3.74907028 9.14917925,4.04261136 9.17345301,4.40996679 L9.55199174,10.1221728 L9.23938565,9.33802334 C9.05011629,8.86389439 8.70372379,8.48761252 8.26351662,8.2792156 C8.20906473,8.25312306 8.15362883,8.2308071 8.09786493,8.21055103 C8.09458465,8.20952104 8.09130446,8.20814774 8.08802419,8.20677445 C8.03422838,8.18789167 7.98043258,8.17244217 7.92598077,8.15870925 C7.9207324,8.15767926 7.91515594,8.15596267 7.90990757,8.15458938 C7.85676785,8.14188645 7.80362814,8.13261671 7.75016034,8.12506357 C7.74359987,8.12403366 7.73671132,8.12300367 7.73015094,8.12231698 C7.67766723,8.11579391 7.62485543,8.11167404 7.57237172,8.11030075 C7.56482725,8.11030075 7.5576107,8.10995745 7.55039415,8.10961406 C7.54153758,8.10961406 7.53268094,8.10892746 7.52415229,8.10892746 C7.49627034,8.10892746 7.46871639,8.11167404 7.44083444,8.11304733 C7.41721677,8.11442062 7.3932711,8.11476392 7.36965343,8.11682382 C7.33422692,8.12025709 7.29912842,8.12643694 7.26370191,8.13193011 C7.24172434,8.1357066 7.21941876,8.13776658 7.19744127,8.14222975 C7.15906249,8.1504695 7.1210118,8.16111253 7.08263311,8.17175548 C7.06459181,8.17690534 7.04622251,8.18068191 7.02785321,8.18617508 C6.97176131,8.20402787 6.91632533,8.22462724 6.86154552,8.2486598 L6.10774817,8.57859314 L5.9939241,7.56682062 L5.65704434,4.57064189 C5.63605085,4.38078437 5.6826301,4.1984799 5.78530134,4.07007719 Z M5.07480314,10.4593158 L5.44776549,10.2958941 L5.82269603,10.1321291 L5.82302403,10.1321291 L7.34767585,9.46470946 C7.51234354,9.392955 7.6668424,9.44342339 7.74425588,9.47981566 C7.89285045,9.55054013 8.0109388,9.68031622 8.07719944,9.84579789 L11.2134292,17.7116681 C10.7420599,17.1156596 10.3638492,16.4420602 10.0951982,15.7094092 C9.88034294,15.123357 9.35616191,14.7446719 8.7598157,14.7446719 L6.46726159,14.7446719 L4.8651963,11.2159994 C4.7913911,11.0532644 4.78056635,10.8733632 4.83600225,10.7219579 C4.847483,10.6896855 4.86454029,10.6532933 4.88815796,10.6172443 C4.92784875,10.5571629 4.98689292,10.497768 5.07480314,10.4593158 Z M1.27432633,7.19706191 C1.23889983,7.01819063 1.26842196,6.84206601 1.35534808,6.7140066 C1.40225542,6.64534203 1.48721345,6.55916797 1.6276073,6.53994189 L4.05301086,6.20382886 C4.26622598,6.17464635 4.49157785,6.31781197 4.61163438,6.55127152 L4.74481176,7.73470548 L4.89898271,9.10731037 L4.58900081,9.24326623 C4.15830628,9.43175046 3.82831499,9.78949285 3.65971102,10.2509188 C3.48159449,10.7374074 3.50652417,11.295307 3.72761185,11.7817955 L5.07283496,14.7450152 L2.76420774,14.7450152 L1.27432633,7.19706191 Z M31.7378407,16.2703988 L29.748708,28.3471241 L25.6297208,28.3471241 C25.2820161,28.3471241 24.9999162,28.6420384 24.9999162,29.006304 C24.9999162,29.3702263 25.2820161,29.6654839 25.6297208,29.6654839 L29.5315566,29.6654839 L28.8764943,33.6418494 L25.7127106,33.6418494 C25.364678,33.6418494 25.0829061,33.9367638 25.0829061,34.3010293 C25.0829061,34.6652949 25.364678,34.9602092 25.7127106,34.9602092 L28.6593429,34.9602092 L27.2472031,43.534698 C27.2330982,43.6198421 27.1629012,43.6816402 27.0802393,43.6816402 L5.9197909,43.6816402 C5.83712905,43.6816402 5.76693204,43.6198421 5.75282703,43.534698 L4.34068718,34.9602092 L7.28731958,34.9602092 C7.63502417,34.9602092 7.91712412,34.6652949 7.91712412,34.3010293 C7.91712412,33.9367638 7.63502417,33.6418494 7.28731958,33.6418494 L4.12353587,33.6418494 L3.46847356,29.6654839 L7.38966282,29.6654839 C7.73736741,29.6654839 8.01946736,29.3702263 8.01946736,29.006304 C8.01946736,28.6420384 7.73736741,28.3471241 7.38966282,28.3471241 L3.25132216,28.3471241 L1.2621895,16.2703988 C1.25103675,16.2031075 1.27629451,16.1550423 1.2995841,16.1262032 C1.32254576,16.097364 1.36387673,16.0630318 1.42915328,16.0630318 L8.7598157,16.0630318 C8.8303407,16.0630318 8.89266515,16.1097237 8.91923501,16.1818214 C9.50147621,17.7690031 10.5150678,19.1251284 11.8507783,20.1035986 C13.217651,21.1054147 14.8256207,21.6348186 16.5001791,21.6348186 C16.5861212,21.6348186 16.6730473,21.6327586 16.7609575,21.6296688 C16.8019605,21.6282955 16.8432914,21.6265789 16.8846222,21.6245189 C16.9207048,21.622459 16.9571154,21.6203991 16.993526,21.6179958 C17.3766571,21.5939632 17.7548679,21.5424648 18.1268461,21.4631572 C18.1281582,21.4628139 18.1291423,21.4628139 18.1301264,21.4624705 C19.2096507,21.2324442 20.2337391,20.7744515 21.1492519,20.1035986 C22.4849624,19.1251284 23.498554,17.7690031 24.0807952,16.1818214 C24.1073651,16.1097237 24.1700175,16.0630318 24.2402144,16.0630318 L31.5712049,16.0630318 C31.6361535,16.0630318 31.6774844,16.097364 31.700446,16.1258598 C31.7237357,16.1550423 31.7486655,16.2031075 31.7378407,16.2703988 Z" id="Shape"></path>
                            </g>
                        </g>
                    </g>
                </g>
            </g>
        </g>
    </g>
</svg>