<?xml version="1.0" encoding="UTF-8"?>
<svg width="45px" height="36px" viewBox="0 0 45 36" version="1.1" xmlns="http://www.w3.org/2000/svg" xmlns:xlink="http://www.w3.org/1999/xlink">
    <!-- Generator: Sketch 57.1 (83088) - https://sketch.com -->
    <title>hamburger</title>
    <desc>Created with Sketch.</desc>
    <g id="Welcome" stroke="none" stroke-width="1" fill="none" fill-rule="evenodd">
        <g id="Mobile-Portrait" transform="translate(-34.000000, -1231.000000)" fill="#000000" fill-rule="nonzero">
            <g id="UI" transform="translate(-38.000000, -30.000000)">
                <g id="Menu" transform="translate(60.000000, 1146.000000)">
                    <g id="Tabs" transform="translate(0.000000, 98.000000)">
                        <g id="iconos" transform="translate(12.000000, 12.000000)">
                            <g id="hamburger" transform="translate(0.000000, 5.000000)">
                                <path d="M41.7835366,16.6829268 C41.3877622,16.6829268 41.0670732,16.3396037 41.0670732,15.9158957 C41.0670732,10.9589315 39.3168963,7.21909235 35.8651667,4.79997847 C32.7730061,2.63285988 28.4164309,1.53406224 22.9166667,1.53406224 C17.4169024,1.53406224 13.0603272,2.63285988 9.96816667,4.7998762 C6.51643699,7.21909235 4.76626016,10.9589315 4.76626016,15.9158957 C4.76626016,16.3396037 4.44547561,16.6829268 4.04979675,16.6829268 C3.65411789,16.6829268 3.33333333,16.3396037 3.33333333,15.9158957 C3.33333333,5.65240572 10.288187,0 22.9166667,0 C35.5451463,0 42.5,5.65240572 42.5,15.9158957 C42.5,16.3395014 42.179311,16.6829268 41.7835366,16.6829268 Z" id="Path"></path>
                                <path d="M10.4166667,9.65853659 C10.1869444,9.65853659 10,9.8555122 10,10.097561 C10,10.3396098 10.1869444,10.5365854 10.4166667,10.5365854 C10.6463889,10.5365854 10.8333333,10.3396098 10.8333333,10.097561 C10.8333333,9.8555122 10.6463889,9.65853659 10.4166667,9.65853659 Z" id="Path"></path>
                                <path d="M34.1666667,10.097561 C34.1666667,10.3396098 34.3536111,10.5365854 34.5833333,10.5365854 C34.8130556,10.5365854 35,10.3396098 35,10.097561 C35,9.8555122 34.8130556,9.65853659 34.5833333,9.65853659 C34.3536111,9.65853659 34.1666667,9.8555122 34.1666667,10.097561 Z" id="Path"></path>
                                <path d="M32.0833333,29.8536585 C32.3130556,29.8536585 32.5,30.0506341 32.5,30.2926829 C32.5,30.5347317 32.3130556,30.7317073 32.0833333,30.7317073 C31.8536111,30.7317073 31.6666667,30.5347317 31.6666667,30.2926829 C31.6666667,30.0506341 31.8536111,29.8536585 32.0833333,29.8536585 Z" id="Path"></path>
                                <path d="M12.9166667,11.4146341 C12.6869444,11.4146341 12.5,11.6116098 12.5,11.8536585 C12.5,12.0957073 12.6869444,12.2926829 12.9166667,12.2926829 C13.1463889,12.2926829 13.3333333,12.0957073 13.3333333,11.8536585 C13.3333333,11.6116098 13.1463889,11.4146341 12.9166667,11.4146341 Z" id="Path"></path>
                                <path d="M36.0518293,36 L9.78150407,36 C6.22593496,36 3.33333333,33.1640195 3.33333333,29.6780488 C3.33333333,29.2900215 3.65411789,28.9756098 4.04979675,28.9756098 C4.44547561,28.9756098 4.76626016,29.2900215 4.76626016,29.6780488 C4.76626016,32.3892761 7.01605081,34.595122 9.78150407,34.595122 L36.0518293,34.595122 C38.817187,34.595122 41.0670732,32.3892761 41.0670732,29.6780488 C41.0670732,29.2900215 41.3877622,28.9756098 41.7835366,28.9756098 C42.179311,28.9756098 42.5,29.2900215 42.5,29.6780488 C42.5,33.1640195 39.6073984,36 36.0518293,36 Z" id="Path"></path>
                                <path d="M41.4095745,22.8292683 L3.59042553,22.8292683 C1.61061702,22.8292683 0,21.3522146 0,19.5365854 L0,18.2195122 C0,16.4038829 1.61061702,14.9268293 3.59042553,14.9268293 L41.4095745,14.9268293 C43.389383,14.9268293 45,16.4038829 45,18.2195122 L45,19.5365854 C45,21.3522146 43.389383,22.8292683 41.4095745,22.8292683 Z M3.59042553,16.2439024 C2.40252128,16.2439024 1.43617021,17.1302049 1.43617021,18.2195122 L1.43617021,19.5365854 C1.43617021,20.6258927 2.40252128,21.5121951 3.59042553,21.5121951 L41.4095745,21.5121951 C42.597383,21.5121951 43.5638298,20.6258927 43.5638298,19.5365854 L43.5638298,18.2195122 C43.5638298,17.1302049 42.597383,16.2439024 41.4095745,16.2439024 L3.59042553,16.2439024 L3.59042553,16.2439024 Z" id="Shape"></path>
                                <path d="M37.0210383,28.097561 C35.028117,28.097561 33.9800979,27.5183498 33.0555892,27.0071749 C32.1659316,26.5153672 31.3976779,26.0905923 29.7601601,26.0905923 C28.122738,26.0905923 27.3544844,26.5152669 26.4648267,27.0071749 C25.540318,27.5183498 24.4923947,28.097561 22.4994734,28.097561 C20.5066479,28.097561 19.4588203,27.5183498 18.5343116,27.0071749 C17.6446539,26.5153672 16.876496,26.0905923 15.239074,26.0905923 C13.6016519,26.0905923 12.833494,26.5152669 11.9438363,27.0071749 C11.0193276,27.5183498 9.97150006,28.097561 7.97857877,28.097561 C5.98575322,28.097561 4.93782992,27.5183498 4.01332125,27.0071749 C3.12366357,26.5153672 2.35550563,26.0905923 0.718083579,26.0905923 C0.321509954,26.0905923 0,25.7537226 0,25.3379791 C0,24.9222355 0.321509954,24.5853659 0.718083579,24.5853659 C2.71090913,24.5853659 3.75883243,25.164577 4.6833411,25.6757519 C5.57299878,26.1675596 6.34115672,26.5923345 7.97857877,26.5923345 C9.61600082,26.5923345 10.3841588,26.1676599 11.2738164,25.6757519 C12.1983251,25.164577 13.2461527,24.5853659 15.239074,24.5853659 C17.2318995,24.5853659 18.2798228,25.1646774 19.2043315,25.6757519 C20.0939892,26.1675596 20.8621471,26.5923345 22.4994734,26.5923345 C24.1367997,26.5923345 24.9050534,26.1676599 25.7947111,25.6757519 C26.7192197,25.164577 27.767143,24.5853659 29.7600643,24.5853659 C31.7529856,24.5853659 32.8010047,25.164577 33.7255133,25.6757519 C34.615171,26.1675596 35.3834247,26.5923345 37.0209425,26.5923345 C38.6584603,26.5923345 39.4268097,26.1676599 40.3164674,25.6757519 C41.2409761,25.164577 42.2889951,24.5853659 44.2819164,24.5853659 C44.6785858,24.5853659 45,24.9222355 45,25.3379791 C45,25.7537226 44.6785858,26.0905923 44.2819164,26.0905923 C42.6443986,26.0905923 41.8761449,26.5152669 40.9864873,27.0071749 C40.0620743,27.5182495 39.0140553,28.097561 37.0210383,28.097561 Z" id="Path"></path>
                            </g>
                        </g>
                    </g>
                </g>
            </g>
        </g>
    </g>
</svg>