<?xml version="1.0" encoding="UTF-8"?>
<svg width="22px" height="45px" viewBox="0 0 22 45" version="1.1" xmlns="http://www.w3.org/2000/svg" xmlns:xlink="http://www.w3.org/1999/xlink">
    <!-- Generator: Sketch 57.1 (83088) - https://sketch.com -->
    <title>ice-cream</title>
    <desc>Created with Sketch.</desc>
    <g id="Welcome" stroke="none" stroke-width="1" fill="none" fill-rule="evenodd">
        <g id="Mobile-Portrait" transform="translate(-292.000000, -1227.000000)" fill="#000000" fill-rule="nonzero">
            <g id="UI" transform="translate(-38.000000, -30.000000)">
                <g id="Menu" transform="translate(60.000000, 1146.000000)">
                    <g id="Tabs" transform="translate(0.000000, 98.000000)">
                        <g id="iconos" transform="translate(12.000000, 12.000000)">
                            <g id="ice-cream" transform="translate(258.000000, 1.000000)">
                                <path d="M21.705336,14.8549338 C21.2666424,13.5695353 20.1117067,12.7283957 18.4842477,12.4801738 C18.9302165,11.7128486 19.2354106,10.5424631 18.8381854,9.24092843 C18.1677771,7.04400937 15.9408428,7.01551361 14.7302519,7.00590067 C15.2413337,6.07721394 15.7433215,4.61054131 15.3879287,3.15039183 C15.1434825,2.1461743 14.3544885,0.830906759 11.9842331,0.268888269 C10.5692095,-0.0665375408 9.07525016,-0.0164125372 8.31062821,0.0433255771 C7.93668358,0.072851246 7.63476342,0.346479052 7.59220361,0.693921162 C7.54927997,1.04548314 7.77117318,1.36820605 8.13238612,1.47875585 C8.68166258,1.64629711 9.37571537,2.00300885 9.55977752,2.74836147 C9.7834895,3.65473219 9.46483637,4.93326422 4.97495559,6.79166759 C3.45516928,7.42063394 2.52503683,8.30915182 2.21111264,9.4321589 C1.84116938,10.7542929 2.42573057,12.0554841 3.00265283,12.9350758 C2.52321805,13.0610751 1.9772154,13.2759947 1.48723163,13.6011209 C0.520723252,14.2427902 0.00636758651,15.1409212 9.07341992e-05,16.1986971 C-0.00745521949,17.5153378 0.456701619,18.3935561 1.00706938,18.9720541 C0.91940342,19.1316989 0.869204593,19.3122865 0.869204593,19.5038602 L0.869204593,20.3583893 C0.869204593,21.9211921 1.99431202,23.2402362 3.51991847,23.6333402 L4.51516386,27.1355704 C4.51516386,27.1359137 4.51552759,27.1359137 4.51552759,27.136257 L7.7693544,38.5881138 C7.76971814,38.5884571 7.76971814,38.5888005 7.76971814,38.5894871 L9.23639555,43.7506503 C9.44883097,44.4977195 10.1425198,45 10.9620696,45 C11.7819829,45 12.4756719,44.4977195 12.6877436,43.750307 L18.4042206,23.6333402 C19.9301907,23.2402362 21.0552982,21.9211921 21.0552982,20.3583893 L21.0552982,19.5038602 C21.0552982,19.3188096 21.0080095,19.1444018 20.9261637,18.9892202 C21.7231603,18.2270448 22.4132116,16.9272268 21.705336,14.8549338 Z M11.3385603,43.4090448 C11.2687186,43.6548634 11.0522819,43.6812993 10.9624333,43.6812993 C10.8725847,43.6812993 10.6557842,43.6548634 10.5859424,43.4090448 L9.49466459,39.5686421 C10.3687782,39.9153976 11.2567145,40.242927 12.1519262,40.5467672 L11.3385603,43.4090448 Z M13.6920829,35.125709 C13.4851039,35.053268 13.2784886,34.9801404 13.0751472,34.906326 C12.7150255,34.7758636 12.310889,34.9451214 12.1722967,35.2850105 C12.0337043,35.6248995 12.2130377,36.0063305 12.5735231,36.1371363 C12.8223345,36.22743 13.0751472,36.3166938 13.3290511,36.404241 L12.5153216,39.2682351 C11.3356503,38.8648315 10.1683468,38.4205725 9.03305409,37.9430113 L7.97014952,34.2021721 C8.47322854,34.4442144 8.98176405,34.6783601 9.49102704,34.9025495 C9.58669566,34.9444348 9.68709332,34.9643475 9.78567201,34.9643475 C10.0490337,34.9643475 10.301119,34.8232421 10.4193407,34.5832598 C10.5823049,34.2529838 10.430981,33.8605665 10.0810445,33.7071015 C9.20183839,33.3205206 8.32772483,32.9023541 7.47652812,32.4649616 L6.34341803,28.4772737 C8.8846403,30.0016244 11.6172,31.2832464 14.4959909,32.298107 L13.6920829,35.125709 Z M14.8590227,31.0188883 C11.6219288,29.8666988 8.57799121,28.3663807 5.79668782,26.5539825 L5.00078252,23.753503 L6.78320298,23.753503 C9.47102026,25.5789473 12.4494812,27.086132 15.6491078,28.2393514 L14.8590227,31.0188883 Z M16.0128671,26.9584161 C13.6262425,26.0891242 11.3691162,25.0152123 9.27277148,23.753503 L16.9237203,23.753503 L16.0128671,26.9584161 Z M19.5889846,18.3427444 L7.81227795,18.3427444 C7.42632938,18.3427444 7.1134964,18.6376583 7.1134964,19.0019232 C7.1134964,19.366188 7.42632938,19.6614452 7.81227795,19.6614452 L19.6580988,19.6614452 L19.6580988,20.3583893 C19.6580988,21.4092987 18.8261813,22.2799639 17.7512727,22.4155761 C17.750909,22.4159195 17.7505452,22.4155761 17.7501814,22.4159195 C17.7010739,22.421756 17.6523302,22.4265625 17.6046777,22.4296524 C17.6032227,22.4296524 17.6014039,22.4299957 17.5999489,22.4299957 C17.5515688,22.4330856 17.5042801,22.4344589 17.4584464,22.4344589 L4.46642016,22.4344589 C4.42022271,22.4344589 4.37293396,22.4330856 4.324554,22.4299957 C4.32309896,22.4299957 4.32164392,22.4296524 4.31982515,22.4296524 C4.27217266,22.4265625 4.2237927,22.4220993 4.17468517,22.4159195 C4.17395761,22.4155761 4.17359387,22.4159195 4.17323014,22.4155761 C3.09832145,22.2799639 2.26640405,21.4092987 2.26640405,20.3583893 L2.26640405,19.6614452 L4.53917202,19.6614452 C4.92512059,19.6614452 5.23795357,19.366188 5.23795357,19.0019232 C5.23795357,18.6376583 4.92512059,18.3427444 4.53917202,18.3427444 L2.32860682,18.3427444 C1.70512346,17.8727362 1.39192665,17.1548495 1.39731299,16.2059068 C1.40611329,14.7024987 3.2081768,14.1816789 3.83820787,14.1178209 C3.86767234,14.1150743 3.89568178,14.1092378 3.92441879,14.1037447 C4.20596843,14.4299009 4.52571285,14.7811194 4.77525176,15.0025623 C4.91020639,15.1220385 5.08190077,15.1810898 5.25359515,15.1810898 C5.4398399,15.1810898 5.62535717,15.1113955 5.76285813,14.9733799 C6.02694742,14.7076485 6.01348835,14.290512 5.73193862,14.04126 C5.35217393,13.7044609 4.64211582,12.843752 4.39112197,12.5282389 C3.96188602,11.9445911 3.27365347,10.7996114 3.56211455,9.7686147 C3.76181837,9.05381783 4.42604286,8.45849702 5.53623617,7.9991319 C8.38956395,6.81810338 11.5800965,5.12003152 10.920601,2.44864117 C10.8114732,2.00815871 10.6128607,1.6480137 10.3687782,1.35412986 C11.8841994,1.4739493 13.6607996,1.94395752 14.0263777,3.44564896 C14.3224777,4.66238299 13.7913892,5.90726949 13.3978017,6.55889507 C13.1278923,6.98083808 12.2472311,8.13749078 11.3476544,8.53162463 C10.9977179,8.6850897 10.8456666,9.07716374 11.008267,9.4074397 C11.1264888,9.64776527 11.3789376,9.78921403 11.6422994,9.78921403 C11.7408782,9.78921403 11.840912,9.76964468 11.9362169,9.72775942 C12.6699194,9.4064098 13.3185021,8.80937239 13.7921167,8.27893946 C13.811396,8.28237273 13.8303114,8.28717919 13.8499544,8.28923917 C14.1034947,8.31979483 14.3934108,8.32185481 14.7004236,8.32425808 C16.1114459,8.3355877 17.1379745,8.43377781 17.4959137,9.60588 C17.7956513,10.5888115 17.5046439,11.4557002 17.2132727,11.9209018 C17.0681328,12.1056092 16.2660436,13.1012437 15.2275108,13.9056478 C14.9292282,14.1367036 14.8859408,14.5521235 15.1307509,14.8336478 C15.2686157,14.9926059 15.469047,15.0750033 15.6709334,15.0750033 C15.8269861,15.0750033 15.9837664,15.0259083 16.1136284,14.9253148 C16.6334405,14.5225978 17.0946872,14.0848619 17.4624478,13.702401 C17.5228319,13.7154472 17.5846709,13.7236869 17.6479651,13.7260902 C18.6657635,13.7617957 19.9651116,14.0567096 20.3757959,15.2593674 C20.8486829,16.6450159 20.5915052,17.6557566 19.5889846,18.3427444 Z" id="Shape"></path>
                            </g>
                        </g>
                    </g>
                </g>
            </g>
        </g>
    </g>
</svg>