<?xml version="1.0" encoding="UTF-8"?>
<svg width="30px" height="45px" viewBox="0 0 30 45" version="1.1" xmlns="http://www.w3.org/2000/svg" xmlns:xlink="http://www.w3.org/1999/xlink">
    <!-- Generator: Sketch 57.1 (83088) - https://sketch.com -->
    <title>soda</title>
    <desc>Created with Sketch.</desc>
    <g id="Welcome" stroke="none" stroke-width="1" fill="none" fill-rule="evenodd">
        <g id="Mobile-Portrait" transform="translate(-207.000000, -1226.000000)" fill="#000000" fill-rule="nonzero">
            <g id="UI" transform="translate(-38.000000, -30.000000)">
                <g id="Menu" transform="translate(60.000000, 1146.000000)">
                    <g id="Tabs" transform="translate(0.000000, 98.000000)">
                        <g id="iconos" transform="translate(12.000000, 12.000000)">
                            <g id="soda" transform="translate(173.000000, 0.000000)">
                                <path d="M29.25,10.5 L17.25,10.5 L17.25,0.75 C17.25,0.335786438 16.9142136,0 16.5,0 L13.5,0 C13.0857864,0 12.75,0.335786438 12.75,0.75 L12.75,10.5 L0.75,10.5 C0.335786438,10.5 0,10.8357864 0,11.25 L0,14.25 C0,14.6642136 0.335786438,15 0.75,15 L1.5879375,15 L5.2558125,44.343 C5.30271466,44.718324 5.62175675,45 6,45 L24,45 C24.3782432,45 24.6972853,44.718324 24.7441875,44.343 L28.4120625,15 L29.25,15 C29.6642136,15 30,14.6642136 30,14.25 L30,11.25 C30,10.8357864 29.6642136,10.5 29.25,10.5 Z M14.25,1.5 L15.75,1.5 L15.75,10.5 L14.25,10.5 L14.25,1.5 Z M3.666375,19.5339375 C6.82378125,19.838625 10.7211563,22.1964375 14.4987188,24.481875 C18.3886875,26.8355625 22.0712813,29.0626875 25.1205938,29.237625 L24.5668125,33.66825 C21.8761875,33.2308125 18.3970313,31.0780312 15.0196875,28.9873125 C11.0791875,26.5480312 7.34709375,24.2389687 4.22690625,24.0185625 L3.666375,19.5339375 Z M6.6620625,43.5 L6.4745625,42 L18,42 C18.4142136,42 18.75,41.6642136 18.75,41.25 C18.75,40.8357864 18.4142136,40.5 18,40.5 L6.2870625,40.5 L4.41759375,25.5439687 C7.14225,25.8760312 10.7406563,28.1025 14.2302188,30.2626875 C17.9037188,32.5366875 21.3961875,34.6975312 24.380625,35.1584062 L23.7129375,40.5 L21,40.5 C20.5857864,40.5 20.25,40.8357864 20.25,41.25 C20.25,41.6642136 20.5857864,42 21,42 L23.5254375,42 L23.3379375,43.5 L6.6620625,43.5 Z M25.30725,27.7449375 C22.6174688,27.6402187 18.8866875,25.3836562 15.27525,23.1985312 C11.2319063,20.7516563 7.0573125,18.2275313 3.476625,18.0160313 L3.0995625,15 L26.9004375,15 L25.30725,27.7449375 Z M28.5,13.5 L1.5,13.5 L1.5,12 L28.5,12 L28.5,13.5 Z" id="Shape"></path>
                            </g>
                        </g>
                    </g>
                </g>
            </g>
        </g>
    </g>
</svg>